# xmcd
#
# Track frame offsets: 
#        150
#        6488
#        26250
#        45083
#        66125
#        94168
#        116798
#        139183
#        158575
#        178508
#
# Disc length: 2679 seconds
#
# Revision: 6
# Processed by: cddbd v1.5.2PL0 Copyright (c) Steve Scherf et al.
# Submitted via: ExactAudioCopy v1.0b6
#
DISCID=770a750a
DTITLE=B'z - RISKY
DYEAR=1990
DGENRE=Japanese Rock
TTITLE0=RISKY
TTITLE1=GIMME YOUR LOVE -不屈のLOVE DRIVER-
TTITLE2=HOT FASHION -流行過多-
TTITLE3=EASY COME, EASY GO! -RISKY Style-
TTITLE4=愛しい人よ Good Night
TTITLE5=HOLY NIGHT にくちづけを
TTITLE6=VAMPIRE WOMAN
TTITLE7=確かなものは闇の中
TTITLE8=FRIDAY MIDNIGHT BLUE
TTITLE9=It's Raining...
EXTD=YEAR: 1990
EXTT0=
EXTT1=
EXTT2=
EXTT3=
EXTT4=
EXTT5=
EXTT6=
EXTT7=
EXTT8=
EXTT9=
PLAYORDER=
